<?xml version="1.0" encoding="UTF-8" standalone="no"?>
<!-- Created with Inkscape (http://www.inkscape.org/) -->

<svg
   width="32"
   height="32"
   viewBox="0 0 32 32"
   version="1.1"
   id="svg1"
   inkscape:version="1.4 (e7c3feb100, 2024-10-09)"
   sodipodi:docname="tile.svg"
   xmlns:inkscape="http://www.inkscape.org/namespaces/inkscape"
   xmlns:sodipodi="http://sodipodi.sourceforge.net/DTD/sodipodi-0.dtd"
   xmlns="http://www.w3.org/2000/svg"
   xmlns:svg="http://www.w3.org/2000/svg">
  <sodipodi:namedview
     id="namedview1"
     pagecolor="#505050"
     bordercolor="#ffffff"
     borderopacity="1"
     inkscape:showpageshadow="0"
     inkscape:pageopacity="0"
     inkscape:pagecheckerboard="1"
     inkscape:deskcolor="#505050"
     inkscape:document-units="px"
     showgrid="true"
     inkscape:zoom="16.206219"
     inkscape:cx="14.716572"
     inkscape:cy="19.251868"
     inkscape:window-width="1920"
     inkscape:window-height="1060"
     inkscape:window-x="0"
     inkscape:window-y="0"
     inkscape:window-maximized="1"
     inkscape:current-layer="layer1">
    <inkscape:grid
       id="grid1"
       units="px"
       originx="0"
       originy="0"
       spacingx="1"
       spacingy="1"
       empcolor="#0099e5"
       empopacity="0.30196078"
       color="#0099e5"
       opacity="0.14901961"
       empspacing="4"
       enabled="true"
       visible="true" />
  </sodipodi:namedview>
  <defs
     id="defs1" />
  <g
     inkscape:label="Layer 1"
     inkscape:groupmode="layer"
     id="layer1">
    <rect
       style="fill:#2d2d2d;stroke-width:4;stroke-linecap:round;paint-order:stroke fill markers;fill-opacity:1"
       id="rect1"
       width="32"
       height="32"
       x="0"
       y="0" />
    <path
       id="path1"
       style="fill:#383838;stroke-width:4;stroke-linecap:round;paint-order:stroke fill markers;fill-opacity:1"
       d="M 0 0 L 0 2 A 2 2 0 0 0 1.7324219 1 A 2 2 0 0 0 2 0 L 0 0 z M 14 0 A 2 2 0 0 0 16 2 A 2 2 0 0 0 18 0 L 14 0 z M 30.029297 0 A 2 2 0 0 0 30.267578 1 A 2 2 0 0 0 32 2 L 32 0 L 30.029297 0 z M 0 14 L 0 18 A 2 2 0 0 0 1.7324219 17 A 2 2 0 0 0 1.7324219 15 A 2 2 0 0 0 0 14 z M 16 14 A 2 2 0 0 0 14 16 A 2 2 0 0 0 16 18 A 2 2 0 0 0 18 16 A 2 2 0 0 0 16 14 z M 32 14 A 2 2 0 0 0 30.267578 15 A 2 2 0 0 0 30.267578 17 A 2 2 0 0 0 32 18 L 32 14 z M 0 30 L 0 32 L 1.9980469 32 A 2 2 0 0 0 1.7324219 31 A 2 2 0 0 0 0 30 z M 16 30 A 2 2 0 0 0 14 32 L 18 32 A 2 2 0 0 0 16 30 z M 32 30 A 2 2 0 0 0 30.267578 31 A 2 2 0 0 0 30.029297 32 L 32 32 L 32 30 z " />
  </g>
</svg>
